<svg fill="#000000" height="256px" width="256px" version="1.1" id="Layer_1" xmlns="http://www.w3.org/2000/svg" xmlns:xlink="http://www.w3.org/1999/xlink" viewBox="0 0 512 512" xml:space="preserve"><g id="SVGRepo_bgCarrier" stroke-width="0"></g><g id="SVGRepo_tracerCarrier" stroke-linecap="round" stroke-linejoin="round"></g><g id="SVGRepo_iconCarrier"> <g> <g> <path d="M256,0C114.615,0,0,114.615,0,256s114.615,256,256,256s256-114.615,256-256S397.385,0,256,0z M256,228.571 c40.331,0,73.143,32.812,73.143,73.143c0,30.634-18.939,56.912-45.714,67.787v51.07h-54.857v-51.07 c-26.776-10.875-45.714-37.153-45.714-67.787h54.857c0,10.083,8.203,18.286,18.286,18.286s18.286-8.203,18.286-18.286 s-8.203-18.286-18.286-18.286c-40.331,0-73.143-32.812-73.143-73.143c0-30.634,18.939-56.912,45.714-67.787v-51.07h54.857v51.07 c26.776,10.875,45.714,37.153,45.714,67.787h-54.857c0-10.083-8.203-18.286-18.286-18.286s-18.286,8.203-18.286,18.286 C237.714,220.368,245.917,228.571,256,228.571z"></path> </g> </g> </g></svg>